<svg width="71" height="33" viewBox="0 0 71 33" fill="none" xmlns="http://www.w3.org/2000/svg">
<g clip-path="url(#clip0)">
<path fill-rule="evenodd" clip-rule="evenodd" d="M61.9602 7.49677C65.8022 11.3388 66.0891 17.4052 62.8498 21.6738L71.1973 30.0213L69.2187 31.9999L60.8922 23.6734C56.6154 27.0661 50.4261 26.8282 46.5274 22.9296C42.3267 18.7288 42.376 11.8687 46.6377 7.60701C50.8993 3.34536 57.7595 3.29601 61.9602 7.49677ZM61.1688 8.2882C64.9387 12.0581 64.8944 18.2147 61.0699 22.0392C57.2453 25.8638 51.0888 25.9081 47.3189 22.1381C43.5489 18.3682 43.5932 12.2117 47.4178 8.38713C51.2423 4.56257 57.3989 4.51828 61.1688 8.2882Z" fill="#2B4074"/>
<path fill-rule="evenodd" clip-rule="evenodd" d="M28.9772 15.7925C28.9772 23.4089 22.7134 29.5832 14.9866 29.5832C7.25988 29.5832 0.996094 23.4089 0.996094 15.7925C0.996094 8.17613 7.25988 2.00183 14.9866 2.00183C22.7134 2.00183 28.9772 8.17613 28.9772 15.7925ZM27.858 15.7925C27.858 22.7996 22.0953 28.48 14.9866 28.48C7.87802 28.48 2.11534 22.7996 2.11534 15.7925C2.11534 8.78544 7.87802 3.10509 14.9866 3.10509C22.0953 3.10509 27.858 8.78544 27.858 15.7925ZM12.7482 13.0344V13.586H13.8674V22.4121H12.7482V22.9637H13.8674H16.1059H17.2251V22.4121H16.1059V13.0344H13.8674H12.7482ZM16.6655 10.2762C16.6655 11.1902 15.9139 11.9311 14.9866 11.9311C14.0594 11.9311 13.3078 11.1902 13.3078 10.2762C13.3078 9.36228 14.0594 8.62136 14.9866 8.62136C15.9139 8.62136 16.6655 9.36228 16.6655 10.2762Z" fill="#2B4074"/>
</g>
<defs>
<clipPath id="clip0">
<rect width="70" height="32" fill="white" transform="translate(0.996094 0.00183105)"/>
</clipPath>
</defs>
</svg>
